<svg width="512" height="512" viewBox="0 0 512 512" fill="none" xmlns="http://www.w3.org/2000/svg">
<rect width="512" height="512" rx="128" fill="url(#paint0_linear)"/>
<path d="M256 128C185.3 128 128 185.3 128 256C128 326.7 185.3 384 256 384C326.7 384 384 326.7 384 256C384 185.3 326.7 128 256 128ZM256 348C205.2 348 164 306.8 164 256C164 205.2 205.2 164 256 164C306.8 164 348 205.2 348 256C348 306.8 306.8 348 256 348Z" fill="url(#paint1_linear)" fill-opacity="0.2"/>
<path fill-rule="evenodd" clip-rule="evenodd" d="M365.5 186.5C372.5 174.5 385.5 180.5 379.5 194.5C362.5 233.5 349.5 289.5 314.5 319.5C279.5 349.5 228.5 354.5 186.5 334.5C144.5 314.5 129.5 264.5 149.5 222.5C169.5 180.5 219.5 160.5 261.5 180.5C282.5 190.5 296.5 210.5 301.5 232.5C302.5 238.5 309.5 240.5 312.5 235.5C327.5 208.5 342.5 186.5 365.5 186.5ZM256 212C231.7 212 212 231.7 212 256C212 280.3 231.7 300 256 300C280.3 300 300 280.3 300 256C300 231.7 280.3 212 256 212Z" fill="url(#paint2_linear)"/>
<defs>
<linearGradient id="paint0_linear" x1="0" y1="0" x2="512" y2="512" gradientUnits="userSpaceOnUse">
<stop stop-color="#0F172A"/>
<stop offset="1" stop-color="#1E1B4B"/>
</linearGradient>
<linearGradient id="paint1_linear" x1="128" y1="128" x2="384" y2="384" gradientUnits="userSpaceOnUse">
<stop stop-color="#2DD4BF"/>
<stop offset="1" stop-color="#3B82F6"/>
</linearGradient>
<linearGradient id="paint2_linear" x1="149.5" y1="186.5" x2="365.5" y2="334.5" gradientUnits="userSpaceOnUse">
<stop stop-color="#2DD4BF"/>
<stop offset="1" stop-color="#3B82F6"/>
</linearGradient>
</defs>
</svg>
